# xmcd
#
# Track frame offsets:
# 150
# 12101
# 21572
# 33460
# 43154
# 56735
# 67014
# 79327
# 96015
# 112835
# 121505
# 133553
# 143930
# 149800
#
# Disc length: 2087 seconds
#
#
# Revision: 0
# Processed by: cddbd v1.5.1PL2 Copyright (c) Steve Scherf et al.
# Submitted via: FreeRIP 2.944 
#
DISCID=c908250e
DTITLE=Twin Country Accordians - Sunny Side of the Mountain
DYEAR=2004
DGENRE=
TTITLE0=Send Me The Pillow That You Dream On
TTITLE1=Sunnyside Of The Mountain
TTITLE2=Cold Cold Heart
TTITLE3=Oh So Many Years
TTITLE4=Where We'll Never Grow Old
TTITLE5=I Wonder Where You Are Tonight
TTITLE6=I Can't Help It If I'm Still In Love With You
TTITLE7=Life's Railway To Heaven
TTITLE8=Precious Memories
TTITLE9=Don't Let Your Sweet Love Die
TTITLE10=I'll Be All Smiles Tonight
TTITLE11=They'll Never Take Her Love From Me
TTITLE12=Bury Me Beneath The Willow
TTITLE13=Where Could I Go
EXTD=
EXTT0=
EXTT1=
EXTT2=
EXTT3=
EXTT4=
EXTT5=
EXTT6=
EXTT7=
EXTT8=
EXTT9=
EXTT10=
EXTT11=
EXTT12=
EXTT13=
PLAYORDER=
